<?xml version="1.0" encoding="UTF-8" standalone="no"?>
<!DOCTYPE svg PUBLIC "-//W3C//DTD SVG 1.1//EN" "http://www.w3.org/Graphics/SVG/1.1/DTD/svg11.dtd">
<svg width="100%" height="100%" viewBox="0 0 653 569" version="1.1" xmlns="http://www.w3.org/2000/svg" xmlns:xlink="http://www.w3.org/1999/xlink" xml:space="preserve" xmlns:serif="http://www.serif.com/" style="fill-rule:evenodd;clip-rule:evenodd;stroke-linejoin:round;stroke-miterlimit:1.41421;">
    <g transform="matrix(1,0,0,1,-1688.99,-1777.93)">
        <g transform="matrix(1,0,0,1,0,1.33099)">
            <g id="Schatzinsel">
                <g id="Gold" transform="matrix(1,0,0,1,756.188,1263.83)">
                    <g id="Metal" transform="matrix(1.67455,0,0,1.67455,-30.7837,-3574.9)">
                        <path d="M824.051,2539.09L770.322,2592.82L716.592,2539.09L770.322,2446.03L824.051,2539.09Z" style="fill:rgb(255,205,0);"/>
                        <path d="M770.842,2441.08L771.356,2441.16L771.859,2441.3L772.346,2441.48L772.81,2441.72L773.247,2442L773.651,2442.33L774.02,2442.7L774.348,2443.11L774.631,2443.54L828.361,2536.6L828.589,2537.05L828.772,2537.52L828.906,2538L828.992,2538.49L829.027,2538.99L829.012,2539.49L828.946,2539.99L828.831,2540.48L828.668,2540.95L828.458,2541.41L828.203,2541.84L827.906,2542.24L827.57,2542.61L773.84,2596.34L773.453,2596.69L773.032,2597L772.581,2597.26L772.105,2597.47L771.609,2597.63L771.1,2597.74L770.582,2597.79L770.061,2597.79L769.543,2597.74L769.033,2597.63L768.538,2597.47L768.062,2597.26L767.611,2597L767.19,2596.69L766.803,2596.34L713.073,2542.61L712.737,2542.24L712.44,2541.84L712.185,2541.41L711.975,2540.95L711.812,2540.48L711.697,2539.99L711.631,2539.49L711.616,2538.99L711.652,2538.49L711.737,2538L711.871,2537.52L712.054,2537.05L712.282,2536.6L766.012,2443.54L766.295,2443.11L766.623,2442.7L766.992,2442.33L767.396,2442L767.833,2441.72L768.297,2441.48L768.784,2441.3L769.287,2441.16L769.801,2441.08L770.321,2441.05L770.842,2441.08ZM716.592,2539.09L770.322,2592.82L824.051,2539.09L770.322,2446.03L716.592,2539.09Z"/>
                    </g>
                    <g id="Sparkles">
                        <g transform="matrix(0.356957,0,0,0.356957,940.921,315.858)">
                            <path d="M890.895,689.041L909.244,720.051L930.828,738.401L909.244,756.75L890.895,787.761L872.545,756.75L850.962,738.401L872.545,720.051L890.895,689.041Z" style="fill:white;"/>
                        </g>
                        <g transform="matrix(0.636376,0,0,0.636376,656.555,197.8)">
                            <path d="M890.895,689.041L909.244,720.051L930.828,738.401L909.244,756.75L890.895,787.761L872.545,756.75L850.962,738.401L872.545,720.051L890.895,689.041Z" style="fill:white;"/>
                        </g>
                        <g transform="matrix(0.305474,0,0,0.305474,1031.71,459.452)">
                            <path d="M890.895,689.041L909.244,720.051L930.828,738.401L909.244,756.75L890.895,787.761L872.545,756.75L850.962,738.401L872.545,720.051L890.895,689.041Z" style="fill:white;"/>
                        </g>
                    </g>
                </g>
                <g id="X" transform="matrix(1,0,0,1,35.0806,1155.22)">
                    <path d="M2298.29,1180.54L2296.75,1180.54L2297.28,1181.26L2204.12,1181.35L1980.27,1002.51L1756.42,1181.35L1669.81,1181.26L1670.33,1180.54L1662.25,1180.54L1868.62,823.087L1950.66,905.129L1873.53,982.258L1903.14,1011.86L1980.27,934.731L2060.67,1015.14L2090.28,985.536L2009.87,905.129L2091.91,823.087L2298.29,1180.54Z" style="fill:rgb(0,175,28);"/>
                    <path d="M2095.43,815.535L2097.54,816.943L2099.13,818.92L2305.5,1176.38L2306.41,1178.69L2306.6,1181.16L2306.04,1183.59L2304.8,1185.74L2302.98,1187.43L2302.54,1187.64L2302.19,1187.99L2299.87,1189.18L2297.29,1189.59L2204.13,1189.69L2201.37,1189.22L2198.92,1187.86L1980.27,1013.18L1761.62,1187.86L1759.17,1189.21L1756.41,1189.68L1669.8,1189.59L1667.22,1189.18L1666.62,1188.88L1662.25,1188.88L1659.79,1188.51L1657.55,1187.43L1655.73,1185.74L1654.49,1183.59L1653.93,1181.16L1654.12,1178.69L1655.03,1176.38L1861.4,818.92L1862.99,816.943L1865.1,815.535L1867.53,814.825L1870.07,814.88L1872.47,815.695L1874.52,817.195L1956.56,899.236L1958.09,901.345L1958.89,903.825L1958.89,906.432L1958.09,908.912L1956.56,911.021L1885.32,982.258L1903.14,1000.08L1974.37,928.838L1976.48,927.306L1978.96,926.5L1981.57,926.5L1984.05,927.306L1986.16,928.838L2060.67,1003.35L2078.49,985.536L2003.98,911.021L2002.44,908.912L2001.64,906.432L2001.64,903.825L2002.44,901.345L2003.98,899.236L2086.02,817.195L2088.06,815.695L2090.46,814.88L2093,814.825L2095.43,815.535ZM2009.87,905.129L2090.28,985.536L2060.67,1015.14L1980.27,934.731L1903.14,1011.86L1873.53,982.258L1950.66,905.129L1868.62,823.087L1662.25,1180.54L1670.33,1180.54L1669.81,1181.26L1756.42,1181.35L1980.27,1002.51L2204.12,1181.35L2297.28,1181.26L2296.75,1180.54L2298.29,1180.54L2091.91,823.087L2009.87,905.129Z"/>
                </g>
                <g id="Mountain" transform="matrix(1,0,0,1,-24.6765,480.325)">
                    <path d="M2178.87,1856.25L1901.5,1856.25L2040.19,1750.85L2178.87,1856.25Z" style="fill:rgb(0,175,28);"/>
                    <path d="M2042.85,1742.95L2045.23,1744.21L2183.91,1849.61L2185.7,1851.48L2186.84,1853.8L2187.2,1856.36L2186.77,1858.91L2185.57,1861.2L2183.73,1863.01L2181.43,1864.18L2178.87,1864.58L1901.5,1864.58L1898.95,1864.18L1896.64,1863.01L1894.8,1861.2L1893.6,1858.91L1893.17,1856.36L1893.53,1853.8L1894.67,1851.48L1896.46,1849.61L2035.14,1744.21L2037.53,1742.95L2040.19,1742.51L2042.85,1742.95ZM1901.5,1856.25L2178.87,1856.25L2040.19,1750.85L1901.5,1856.25Z"/>
                </g>
            </g>
        </g>
    </g>
</svg>
